<?xml version="1.0" standalone="no"?>
<!DOCTYPE svg PUBLIC "-//W3C//DTD SVG 20010904//EN"
 "http://www.w3.org/TR/2001/REC-SVG-20010904/DTD/svg10.dtd">
<svg version="1.0" xmlns="http://www.w3.org/2000/svg"
 width="1024.000000pt" height="1024.000000pt" viewBox="0 0 1024.000000 1024.000000"
 preserveAspectRatio="xMidYMid meet">

<g transform="translate(0.000000,1024.000000) scale(0.100000,-0.100000)"
fill="#000000" stroke="none">
<path d="M0 5120 l0 -5120 5120 0 5120 0 0 5120 0 5120 -5120 0 -5120 0 0
-5120z m4710 2865 l0 -255 -430 0 -430 0 0 -1185 0 -1185 -315 0 -315 0 0
1185 0 1185 -435 0 -435 0 0 255 0 255 1180 0 1180 0 0 -255z m1812 183 c14
-40 87 -230 161 -423 74 -192 190 -494 257 -670 236 -619 332 -872 410 -1075
146 -381 240 -630 240 -635 0 -3 -154 -4 -342 -3 l-343 3 -104 303 -104 302
-567 0 -567 0 -105 -302 -106 -303 -342 -3 c-273 -2 -341 0 -337 10 42 102
270 696 372 968 73 195 194 515 268 710 341 899 438 1152 449 1173 8 16 36 17
371 17 l362 0 27 -72z m308 -3167 c496 -102 852 -384 1041 -822 96 -221 134
-443 126 -719 -6 -185 -22 -284 -72 -444 -31 -98 -138 -317 -188 -386 l-33
-45 205 -217 c113 -120 207 -222 209 -227 2 -7 -362 -209 -408 -226 -11 -4
-64 47 -175 169 -88 96 -164 175 -168 175 -5 1 -29 -13 -53 -30 -103 -71 -305
-151 -462 -184 -183 -38 -459 -36 -646 5 -519 113 -873 430 -1050 937 -51 148
-77 293 -83 468 -17 460 122 859 401 1152 212 223 469 357 783 408 126 21 444
13 573 -14z m-2090 -257 l0 -216 -47 -61 c-66 -86 -379 -485 -603 -767 -102
-129 -292 -370 -422 -535 -130 -165 -286 -363 -347 -440 l-110 -140 784 -3
784 -2 3 -240 c2 -132 2 -245 0 -250 -3 -7 -412 -10 -1183 -10 l-1179 0 0 218
0 217 68 85 c38 47 118 148 178 225 95 120 546 689 1130 1425 l163 205 -724 3
-725 2 0 250 0 250 1115 0 1115 0 0 -216z"/>
<path d="M6028 7364 c-177 -512 -297 -859 -303 -876 -7 -17 16 -18 398 -18
l406 0 -25 68 c-23 60 -194 556 -328 951 l-52 154 -96 -279z"/>
<path d="M6425 4511 c-191 -25 -358 -112 -502 -264 -166 -175 -253 -419 -253
-711 0 -322 84 -556 269 -750 111 -116 250 -196 401 -231 108 -26 308 -24 415
4 90 24 209 76 203 90 -1 5 -95 107 -208 226 -113 120 -205 221 -205 225 0 6
155 144 296 262 l55 47 198 -198 c157 -158 199 -195 205 -182 115 215 143 558
70 837 -82 313 -310 549 -602 623 -88 23 -253 33 -342 22z"/>
</g>
</svg>
