<svg version="1.1" id="Layer_1" xmlns="http://www.w3.org/2000/svg" xmlns:xlink="http://www.w3.org/1999/xlink" x="0px" y="0px"
	 width="100%" viewBox="0 0 512 512" enable-background="new 0 0 512 512" xml:space="preserve">
<path fill="white" opacity="1.000000" stroke="none" 
	d="
M287.000061,77.677299 
	C327.153290,77.679176 366.806549,77.648766 406.459717,77.694618 
	C431.971344,77.724121 450.297363,95.934959 450.313995,121.451263 
	C450.372864,211.920654 450.375671,302.390137 450.322113,392.859528 
	C450.308044,416.615265 431.534729,435.304108 407.699432,435.314911 
	C307.899780,435.360199 208.100143,435.360077 108.300537,435.302795 
	C82.803070,435.288147 64.674721,416.935699 64.668968,391.345062 
	C64.648758,301.375397 64.648087,211.405701 64.666000,121.436028 
	C64.671059,96.029465 83.035072,77.720016 108.561096,77.703468 
	C167.874069,77.665031 227.187073,77.682510 287.000061,77.677299 
M443.662384,404.080658 
	C445.066345,399.259033 445.671692,394.349182 445.651154,389.316620 
	C445.492096,350.342651 445.281708,311.368469 445.293823,272.394379 
	C445.309540,221.749939 445.589233,171.105576 445.601654,120.461151 
	C445.606262,101.751709 432.002716,86.126350 413.629059,83.168312 
	C403.026337,81.461334 392.345062,82.419167 381.706604,82.408943 
	C290.901367,82.321716 200.095947,82.324852 109.290649,82.384964 
	C86.363136,82.400139 69.394478,99.010620 69.376297,121.498314 
	C69.303551,211.471176 69.293449,301.444153 69.363708,391.417023 
	C69.381210,413.831360 86.216087,430.595062 108.698814,430.609375 
	C207.835754,430.672455 306.972748,430.649719 406.109741,430.607788 
	C423.578979,430.600372 437.093384,421.160217 443.662384,404.080658 
z"/>
<path fill="#000000" opacity="1.000000" stroke="none" 
	d="
M393.869568,200.663895 
	C411.458740,202.148560 423.829163,211.030014 432.398010,225.480957 
	C438.040924,234.997391 441.126526,245.499496 439.139984,256.453278 
	C437.299164,266.603729 433.394531,276.368195 425.645203,283.672882 
	C421.518097,287.563141 421.155609,290.689240 424.643860,294.976898 
	C426.831116,297.665466 428.306396,300.919098 430.843872,303.391052 
	C433.257202,305.742035 432.794769,307.739258 430.001129,309.389862 
	C428.711670,310.151703 427.381012,310.857697 426.158356,311.716217 
	C422.568604,314.236725 419.754974,313.851288 417.565002,309.813965 
	C415.980286,306.892487 413.831696,304.245636 412.495026,301.228027 
	C410.412964,296.527802 407.385864,296.250824 402.860687,297.561066 
	C370.020233,307.069946 338.112732,282.496643 338.722748,248.337021 
	C339.064270,229.211700 352.126312,211.323044 370.394043,203.653214 
	C377.980499,200.467987 385.609192,200.722061 393.869568,200.663895 
M367.313690,279.216980 
	C370.786102,281.729431 374.370026,283.980713 379.237000,284.516907 
	C378.920746,283.478912 378.860626,282.820007 378.546967,282.320129 
	C371.647583,271.324097 382.880280,259.805115 393.469727,260.629852 
	C401.515442,261.256470 406.644501,265.707428 410.544708,272.029358 
	C412.755402,275.612701 414.601166,276.002228 417.172089,272.558838 
	C426.152710,260.530396 427.831329,247.555756 421.345062,234.048874 
	C414.714813,220.242218 402.984955,213.346649 387.966675,213.724594 
	C372.930359,214.102997 361.653168,221.741653 355.577362,235.709488 
	C348.793976,251.303879 352.987457,266.494873 367.313690,279.216980 
M395.328217,275.970642 
	C393.668182,274.737030 391.815247,274.148560 389.738312,274.243530 
	C385.412567,274.441345 382.746002,277.203156 383.036926,281.209412 
	C383.316132,285.054596 386.013641,287.276398 390.365570,286.613678 
	C393.850250,286.082977 397.565857,285.882172 400.565369,283.531189 
	C399.972931,280.337189 397.971527,278.365204 395.328217,275.970642 
z"/>
<path fill="#000000" opacity="1.000000" stroke="none" 
	d="
M233.671600,271.372498 
	C237.997528,280.345001 242.149719,288.986938 246.301315,297.627625 
	C238.360001,301.275238 232.435547,299.863678 230.030548,292.853180 
	C226.924240,283.798279 221.584839,281.006195 212.186508,281.761169 
	C200.431107,282.705505 188.535645,282.167267 176.711365,281.858582 
	C172.277145,281.742798 169.833664,283.471771 168.412277,287.354492 
	C167.897186,288.761475 167.345688,290.158112 166.742249,291.529297 
	C163.349960,299.237762 162.777390,299.581543 154.337341,299.146545 
	C149.637955,298.904327 149.068680,297.986420 151.175201,293.610107 
	C157.313187,280.858246 163.512878,268.136139 169.671783,255.394333 
	C177.859482,238.455307 186.027863,221.506943 194.216049,204.568146 
	C194.989807,202.967484 195.368530,200.885071 197.736847,200.864197 
	C200.073257,200.843582 200.597504,202.839523 201.378387,204.456985 
	C212.092148,226.648468 222.793488,248.845947 233.671600,271.372498 
M179.893463,264.244598 
	C179.511719,265.596802 178.216782,266.832153 179.366241,268.455078 
	C191.907593,268.455078 204.445496,268.455078 217.931259,268.455078 
	C211.324951,254.300888 205.071548,240.902786 198.818146,227.504684 
	C198.244766,227.529953 197.671387,227.555206 197.098007,227.580475 
	C191.465851,239.577805 185.833710,251.575150 179.893463,264.244598 
z"/>
<path fill="#000000" opacity="1.000000" stroke="none" 
	d="
M256.647583,207.023041 
	C256.228210,202.364273 257.862579,200.581268 262.321320,200.619461 
	C281.805023,200.786438 301.290985,200.678619 320.776062,200.711655 
	C322.697144,200.714905 324.946716,200.156509 326.099152,202.448395 
	C327.210815,204.659195 325.594391,206.217438 324.572876,207.888672 
	C309.994537,231.740021 295.406128,255.585190 280.857941,279.454895 
	C280.025818,280.820160 278.820099,282.112579 279.049927,284.061340 
	C281.161102,285.451904 283.552765,284.766602 285.786621,284.783936 
	C297.276733,284.873230 308.768372,284.888824 320.258362,284.794800 
	C324.310944,284.761658 327.067719,285.707825 327.145996,290.503235 
	C327.239838,296.250824 325.634521,298.758881 320.511566,299.056671 
	C315.365417,299.355774 310.190796,299.183624 305.028656,299.184967 
	C290.706421,299.188721 276.384155,299.186584 262.061981,299.156158 
	C259.938416,299.151672 257.484406,299.609222 256.245697,297.270386 
	C254.989365,294.898224 256.934479,293.228424 258.044464,291.439606 
	C273.050110,267.256683 288.066345,243.080322 303.054962,218.886871 
	C303.649323,217.927551 303.995728,216.814636 304.769653,215.070007 
	C301.442230,214.833725 298.519806,214.253571 295.664978,214.489914 
	C285.018799,215.371292 274.367310,214.640747 263.721588,214.858200 
	C256.662140,215.002380 256.658295,214.814087 256.647583,207.023041 
z"/>
<path fill="#000000" opacity="1.000000" stroke="none" 
	d="
M74.852768,203.337372 
	C75.862999,200.811310 77.733009,200.720337 79.588280,200.718826 
	C102.074196,200.700531 124.560303,200.746643 147.045853,200.652664 
	C151.154327,200.635483 152.285233,202.816833 152.137329,206.310944 
	C151.990677,209.775192 153.356506,214.263535 147.508652,214.364944 
	C140.372467,214.488693 133.227112,214.613663 126.097321,214.381683 
	C121.672768,214.237747 120.303459,215.979187 120.381775,220.279282 
	C120.751038,240.555771 121.229858,260.834839 120.598808,281.117676 
	C120.474983,285.097687 120.698517,289.088196 120.748787,293.074036 
	C120.790703,296.396271 120.073006,299.088409 115.934074,299.156342 
	C111.924294,299.222137 108.028511,299.072693 106.961319,294.105408 
	C106.616821,292.501984 106.705231,290.791901 106.703835,289.130493 
	C106.685097,266.811768 106.689339,244.493057 106.679054,222.174332 
	C106.675682,214.861099 105.896225,214.389450 98.568520,214.678589 
	C92.427704,214.920883 86.260368,214.393204 80.106720,214.443451 
	C76.085228,214.476288 74.199341,212.913712 74.634544,208.782043 
	C74.808334,207.132187 74.724373,205.455185 74.852768,203.337372 
z"/>
</svg>